<svg id="Calque_4" data-name="Calque 4" xmlns="http://www.w3.org/2000/svg" viewBox="0 0 128.42 124.64"><title>Logo_2</title><polygon points="2.32 124.64 128.42 124.64 126.93 108.89 123.7 74.72 121.36 50 121.36 49.95 30.01 49.95 27.74 24.73 98.87 24.73 97.52 37.64 103.51 38.58 121.78 41.45 123.53 24.73 123.58 24.73 125.28 8.01 126.1 0.22 126.08 0.22 126.1 0 0 0 7.06 74.69 93.95 74.69 93.95 74.73 98.42 74.73 100.68 99.91 29.55 99.91 30.9 87.05 30.9 87 25.23 86.11 6.64 83.19 4.89 99.91 4.84 99.91 3.14 116.63 2.32 124.42 2.34 124.42 2.34 124.47 2.32 124.64" style="fill:#732da9"/></svg>